<?xml version="1.0" encoding="UTF-8" standalone="no"?>
<svg width="270px" height="76px" viewBox="0 0 270 76" version="1.1" xmlns="http://www.w3.org/2000/svg">
    <!-- Generator: Sketch 39.1 (31720) - http://www.bohemiancoding.com/sketch -->
    <title>logo-typo3</title>
    <desc>Created with Sketch.</desc>
    <defs></defs>
    <g id="Page-1" stroke="none" stroke-width="1" fill="none" fill-rule="evenodd">
        <g id="logo-typo3" transform="translate(-38.000000, -37.000000)">
            <rect id="Rectangle-path" x="0.358579882" y="0.365680473" width="355.029586" height="149.112426"></rect>
            <path d="M145.968639,62.5695266 L145.968639,111.552071 L139.142308,111.552071 L139.142308,62.5695266 L127.051775,62.5695266 L127.051775,56.6050296 L158.058284,56.6050296 L158.058284,62.5695266 L145.968639,62.5695266 L145.968639,62.5695266 Z M182.606805,86.0369822 L182.606805,111.552071 L175.536391,111.552071 L175.536391,86.0369822 L161.490533,56.6050296 L169.021598,56.6050296 L179.377811,78.8121302 L189.741124,56.6050296 L196.888757,56.6050296 L182.606805,86.0369822 L182.606805,86.0369822 Z M218.081361,90.8272189 L211.487574,90.8272189 L211.487574,111.552071 L204.65503,111.552071 L204.65503,56.6050296 C204.65503,56.6050296 211.41213,56.0502959 217.929586,56.0502959 C229.856805,56.0502959 233.31213,63.4313609 233.31213,73.0872781 C233.31213,85.0162722 229.22574,90.8272189 218.081361,90.8272189 L218.081361,90.8272189 Z M218.862426,61.7059172 C214.549704,61.7059172 211.486686,62.1772189 211.486686,62.1772189 L211.486686,85.0899408 L218.862426,85.0899408 C223.261243,85.0899408 226.326036,82.1893491 226.326036,73.6340237 C226.326923,65.7816568 224.434615,61.7059172 218.862426,61.7059172 L218.862426,61.7059172 Z M257.960059,112.096154 C245.01213,112.096154 241.556805,102.678994 241.556805,83.4532544 C241.556805,65.0014793 245.013018,56.0511834 257.960059,56.0511834 C270.907101,56.0511834 274.360651,65.0014793 274.360651,83.4532544 C274.360651,102.678994 270.907101,112.096154 257.960059,112.096154 L257.960059,112.096154 Z M257.960059,61.7795858 C250.901183,61.7795858 248.542012,66.5724852 248.542012,83.8428994 C248.542012,100.71213 250.901183,106.372189 257.960059,106.372189 C265.018935,106.372189 267.377219,100.71213 267.377219,83.8428994 C267.378107,66.5724852 265.018935,61.7795858 257.960059,61.7795858 L257.960059,61.7795858 Z M294.064793,112.096154 C290.22071,112.096154 284.496746,110.923669 283.780473,110.755917 L283.780473,105.036391 C285.670118,105.425148 290.533136,106.233728 293.990237,106.233728 C297.985207,106.233728 300.583136,102.84142 300.583136,96.7899408 C300.583136,89.6547337 299.413314,85.8852071 293.836686,85.8852071 L287.39645,85.8852071 L287.39645,80.1488166 L293.043195,80.1488166 C299.412426,80.1488166 299.713314,73.6340237 299.713314,70.4982249 C299.713314,64.2940828 297.758876,61.7795858 293.836686,61.7795858 C290.384024,61.7795858 286.449408,62.6431953 284.180769,63.1162722 L284.180769,57.3878698 C285.039053,57.2289941 289.677515,56.0511834 293.67426,56.0511834 C301.755621,56.0511834 306.39497,59.5056213 306.39497,71.2065089 C306.39497,76.5452663 304.502663,81.245858 300.342604,82.7467456 C305.13284,83.0609467 307.326923,88.3180473 307.326923,96.0088757 C307.326923,107.707988 302.777219,112.096154 294.064793,112.096154 L294.064793,112.096154 Z" id="Shape" fill="#000000"></path>
            <path d="M94.1485207,88.8710059 C93.041716,89.1976331 92.1585799,89.3201183 91.0002959,89.3201183 C81.5112426,89.3201183 67.5781065,56.1612426 67.5781065,45.1251479 C67.5781065,41.0627219 68.5393491,39.7073964 69.8973373,38.543787 C58.2843195,39.8991124 44.3494083,44.1612426 39.893787,49.5789941 C38.9307692,50.9360947 38.3449704,53.0636095 38.3449704,55.7742604 C38.3449704,73.002071 56.7337278,112.095266 69.7047337,112.095266 C75.7073964,112.096154 85.8248521,102.231657 94.1485207,88.8710059" id="Shape" fill="#FF8700"></path>
            <path d="M88.091716,37.3863905 C100.091716,37.3863905 112.099704,39.3213018 112.099704,46.0952663 C112.099704,59.837574 103.384615,76.4911243 98.9352071,76.4911243 C90.9985207,76.4911243 81.1260355,54.4198225 81.1260355,43.3837278 C81.1269231,38.3511834 83.0618343,37.3863905 88.091716,37.3863905" id="Shape" fill="#FF8700"></path>
        </g>
    </g>
</svg>
