<?xml version="1.0" encoding="UTF-8" standalone="no"?>
<svg width="75px" height="76px" viewBox="0 0 75 76" version="1.1" xmlns="http://www.w3.org/2000/svg">
    <!-- Generator: Sketch 39.1 (31720) - http://www.bohemiancoding.com/sketch -->
    <title>logo-typo3-mobile</title>
    <desc>Created with Sketch.</desc>
    <defs></defs>
    <g id="Page-1" stroke="none" stroke-width="1" fill="none" fill-rule="evenodd">
        <g id="logo-typo3-mobile" fill="#FF8700">
            <path d="M56.1485207,51.8710059 C55.041716,52.1976331 54.1585799,52.3201183 53.0002959,52.3201183 C43.5112426,52.3201183 29.5781065,19.1612426 29.5781065,8.12514793 C29.5781065,4.06272189 30.5393491,2.70739645 31.8973373,1.54378698 C20.2843195,2.89911243 6.34940828,7.1612426 1.89378698,12.5789941 C0.930769231,13.9360947 0.344970414,16.0636095 0.344970414,18.7742604 C0.344970414,36.002071 18.7337278,75.0952663 31.7047337,75.0952663 C37.7073964,75.0961538 47.8248521,65.2316568 56.1485207,51.8710059" id="Shape"></path>
            <path d="M50.091716,0.386390533 C62.091716,0.386390533 74.0997041,2.32130178 74.0997041,9.09526627 C74.0997041,22.837574 65.3846154,39.4911243 60.9352071,39.4911243 C52.9985207,39.4911243 43.1260355,17.4198225 43.1260355,6.38372781 C43.1269231,1.35118343 45.0618343,0.386390533 50.091716,0.386390533" id="Shape"></path>
        </g>
    </g>
</svg>
