<svg width="75" height="76" viewBox="0 0 75 76" xmlns="http://www.w3.org/2000/svg"><title>logo-typo3-mobile</title><g fill="#FF8700" fill-rule="evenodd"><path d="M56.149 51.871c-1.107.327-1.99.45-3.149.45-9.489 0-23.422-33.16-23.422-44.196 0-4.062.961-5.418 2.32-6.581C20.283 2.899 6.348 7.16 1.893 12.579.93 13.936.345 16.064.345 18.774c0 17.228 18.389 56.321 31.36 56.321 6.002.001 16.12-9.863 24.444-23.224M50.092.386c12 0 24.008 1.935 24.008 8.71 0 13.742-8.715 30.395-13.165 30.395-7.936 0-17.809-22.071-17.809-33.107 0-5.033 1.936-5.998 6.966-5.998"/></g></svg>