<svg width="270" height="76" viewBox="0 0 270 76" xmlns="http://www.w3.org/2000/svg"><title>logo-typo3</title><g fill="none" fill-rule="evenodd"><path d="M-37.641-36.634h355.03v149.112h-355.03z"/><path d="M107.969 25.57v48.982h-6.827V25.57h-12.09v-5.965h31.006v5.965h-12.09zm36.638 23.467v25.515h-7.07V49.037L123.49 19.605h7.53l10.357 22.207 10.363-22.207h7.148l-14.282 29.432zm35.474 4.79h-6.593v20.725h-6.833V19.605s6.757-.555 13.275-.555c11.927 0 15.382 7.381 15.382 17.037 0 11.93-4.086 17.74-15.23 17.74zm.781-29.121c-4.312 0-7.375.471-7.375.471V48.09h7.375c4.4 0 7.464-2.9 7.464-11.456 0-7.852-1.891-11.928-7.464-11.928zm39.098 50.39c-12.948 0-16.403-9.417-16.403-28.643 0-18.452 3.456-27.402 16.403-27.402s16.4 8.95 16.4 27.402c0 19.226-3.453 28.643-16.4 28.643zm0-50.316c-7.059 0-9.418 4.792-9.418 22.063 0 16.87 2.36 22.53 9.418 22.53 7.059 0 9.417-5.66 9.417-22.53.001-17.27-2.358-22.063-9.417-22.063zm36.105 50.316c-3.844 0-9.568-1.172-10.285-1.34v-5.72c1.89.39 6.753 1.198 10.21 1.198 3.995 0 6.593-3.393 6.593-9.444 0-7.135-1.17-10.905-6.746-10.905h-6.44V43.15h5.646c6.37 0 6.67-6.515 6.67-9.65 0-6.205-1.954-8.72-5.876-8.72-3.453 0-7.388.864-9.656 1.337v-5.728c.858-.159 5.497-1.337 9.493-1.337 8.082 0 12.721 3.455 12.721 15.156 0 5.338-1.892 10.039-6.052 11.54 4.79.314 6.984 5.571 6.984 13.262 0 11.699-4.55 16.087-13.262 16.087z" fill="#000"/><path d="M56.149 51.871c-1.107.327-1.99.45-3.149.45-9.489 0-23.422-33.16-23.422-44.196 0-4.062.961-5.418 2.32-6.581C20.283 2.899 6.348 7.16 1.893 12.579.93 13.936.345 16.064.345 18.774c0 17.228 18.389 56.321 31.36 56.321 6.002.001 16.12-9.863 24.444-23.224M50.092.386c12 0 24.008 1.935 24.008 8.71 0 13.742-8.715 30.395-13.165 30.395-7.936 0-17.809-22.071-17.809-33.107 0-5.033 1.936-5.998 6.966-5.998" fill="#FF8700"/></g></svg>